solid OpenSCAD_Model
  facet normal -1 0 0
    outer loop
      vertex 0 0 0
      vertex 0 20 4
      vertex 0 20 0
    endloop
  endfacet
  facet normal -1 -0 0
    outer loop
      vertex 0 20 4
      vertex 0 0 0
      vertex 0 0 4
    endloop
  endfacet
  facet normal -0 0 1
    outer loop
      vertex 0 20 4
      vertex 20 0 4
      vertex 20 20 4
    endloop
  endfacet
  facet normal 0 0 1
    outer loop
      vertex 20 0 4
      vertex 0 20 4
      vertex 0 0 4
    endloop
  endfacet
  facet normal 1 -0 0
    outer loop
      vertex 20 0 4
      vertex 20 20 0
      vertex 20 20 4
    endloop
  endfacet
  facet normal 1 0 0
    outer loop
      vertex 20 20 0
      vertex 20 0 4
      vertex 20 0 0
    endloop
  endfacet
  facet normal 0 0 -1
    outer loop
      vertex 0 0 0
      vertex 20 20 0
      vertex 20 0 0
    endloop
  endfacet
  facet normal -0 0 -1
    outer loop
      vertex 20 20 0
      vertex 0 0 0
      vertex 0 20 0
    endloop
  endfacet
  facet normal 0 -1 0
    outer loop
      vertex 0 0 0
      vertex 20 0 4
      vertex 0 0 4
    endloop
  endfacet
  facet normal 0 -1 -0
    outer loop
      vertex 20 0 4
      vertex 0 0 0
      vertex 20 0 0
    endloop
  endfacet
  facet normal 0 1 -0
    outer loop
      vertex 20 20 0
      vertex 0 20 4
      vertex 20 20 4
    endloop
  endfacet
  facet normal 0 1 0
    outer loop
      vertex 0 20 4
      vertex 20 20 0
      vertex 0 20 0
    endloop
  endfacet
  facet normal 1 -0 0
    outer loop
      vertex 1.2 1.2 3
      vertex 1.2 18.8 0.299999
      vertex 1.2 18.8 3
    endloop
  endfacet
  facet normal 1 0 0
    outer loop
      vertex 1.2 18.8 0.299999
      vertex 1.2 1.2 3
      vertex 1.2 1.2 0.299999
    endloop
  endfacet
  facet normal 0 0 -1
    outer loop
      vertex 1.2 1.2 3
      vertex 18.8 18.8 3
      vertex 18.8 1.2 3
    endloop
  endfacet
  facet normal -0 0 -1
    outer loop
      vertex 18.8 18.8 3
      vertex 1.2 1.2 3
      vertex 1.2 18.8 3
    endloop
  endfacet
  facet normal -1 0 0
    outer loop
      vertex 18.8 1.2 0.299999
      vertex 18.8 18.8 3
      vertex 18.8 18.8 0.299999
    endloop
  endfacet
  facet normal -1 -0 0
    outer loop
      vertex 18.8 18.8 3
      vertex 18.8 1.2 0.299999
      vertex 18.8 1.2 3
    endloop
  endfacet
  facet normal 0 -1 0
    outer loop
      vertex 1.2 18.8 0.299999
      vertex 18.8 18.8 3
      vertex 1.2 18.8 3
    endloop
  endfacet
  facet normal 0 -1 -0
    outer loop
      vertex 18.8 18.8 3
      vertex 1.2 18.8 0.299999
      vertex 18.8 18.8 0.299999
    endloop
  endfacet
  facet normal -0 0 1
    outer loop
      vertex 1.2 18.8 0.299999
      vertex 18.8 1.2 0.299999
      vertex 18.8 18.8 0.299999
    endloop
  endfacet
  facet normal 0 0 1
    outer loop
      vertex 18.8 1.2 0.299999
      vertex 1.2 18.8 0.299999
      vertex 1.2 1.2 0.299999
    endloop
  endfacet
  facet normal 0 1 -0
    outer loop
      vertex 18.8 1.2 0.299999
      vertex 1.2 1.2 3
      vertex 18.8 1.2 3
    endloop
  endfacet
  facet normal 0 1 0
    outer loop
      vertex 1.2 1.2 3
      vertex 18.8 1.2 0.299999
      vertex 1.2 1.2 0.299999
    endloop
  endfacet
endsolid OpenSCAD_Model
